<svg width="162" height="210" viewBox="0 0 162 210" fill="none" xmlns="http://www.w3.org/2000/svg">
<g clip-path="url(#clip0_18_2)">
<path d="M108.476 28.8392C108.056 28.9908 107.033 29.471 106.245 29.9258C104.933 30.684 104.539 30.785 102.281 30.8861C100.129 30.9619 99.5513 31.0883 98.3963 31.7201C96.4275 32.7309 94.6163 34.7778 93.2513 37.4818C91.5188 40.8933 90.9938 43.0919 90.8363 47.767L90.6788 51.684L85.9013 52.8211L81.1238 53.9836L80.2838 53.2507C79.3388 52.4421 78.2363 52.341 76.2675 52.9222C75.585 53.0991 73.905 53.4024 72.5138 53.554C71.1225 53.6803 69.6 53.9583 69.1275 54.1605C68.025 54.5901 67.1325 55.702 67.1325 56.5865C67.1325 57.2435 67.0013 57.3193 65.3738 57.7237C62.88 58.3302 33.7688 65.1785 33.6638 65.1785C33.6375 65.1785 33.3225 64.4962 33.0075 63.637C32.22 61.6659 31.275 60.7814 28.6238 59.5432C25.8938 58.2796 23.3738 57.8753 20.6963 58.2796C17.1788 58.8103 15.2363 60.1749 13.6088 63.2832L12.6638 65.0522L11.22 64.9764C9.82877 64.9006 9.72377 64.9258 8.72627 65.9367C7.99127 66.6695 7.25627 67.0738 6.23252 67.3771C3.31877 68.1858 2.95127 68.5648 2.61002 71.2435L2.42627 72.6081L-2.56123 73.8211C-5.31748 74.4782 -7.81123 75.0847 -8.12623 75.1605C-8.65123 75.2868 -8.86123 75.0089 -10.0425 72.6081C-12.72 67.1497 -16.2375 63.1063 -19.8075 61.4385C-21.435 60.7056 -21.7762 60.6298 -24.1387 60.6298C-26.58 60.6298 -26.8162 60.6803 -28.5487 61.5395C-30.36 62.424 -30.36 62.424 -32.0137 62.146C-34.1137 61.767 -35.7412 61.9692 -37.7625 62.9042C-39.6525 63.7886 -41.0962 65.2038 -42.435 67.5034C-44.4825 71.0666 -45.27 74.5287 -45.3225 80.2905L-45.3487 83.9294L-51.3862 85.3699C-54.72 86.1785 -57.5812 86.9114 -57.765 87.0125C-57.9487 87.1136 -58.08 87.7453 -58.08 88.4529C-58.08 89.4637 -57.9487 89.8428 -57.45 90.3229C-57.0825 90.6767 -56.6362 90.9042 -56.4525 90.8284C-55.2975 90.4493 -44.6137 88.1749 -44.4825 88.276C-44.43 88.3518 -43.9837 89.5395 -43.5112 90.9042C-41.2537 97.6262 -37.0275 103.211 -32.6437 105.309C-30.78 106.193 -30.5437 106.244 -28.1287 106.244C-25.7137 106.244 -25.5037 106.193 -23.745 105.309C-21.9075 104.399 -21.855 104.373 -20.3062 104.651C-18.39 105.005 -15.8437 104.651 -14.085 103.792C-12.4837 103.034 -10.8825 101.265 -9.56998 98.8645C-7.10248 94.2652 -6.36748 88.9836 -7.28623 82.3627C-7.49623 80.7959 -7.62748 79.4565 -7.57498 79.3807C-7.39123 79.2291 0.273766 77.3085 0.746266 77.3085C1.03502 77.3085 1.21877 77.637 1.35002 78.3446C1.56002 79.6334 2.11127 80.6442 3.29252 82.0594L4.21127 83.146L4.05377 88.6298L3.89627 94.1136L4.78877 96.2363C6.33752 99.8753 7.51877 101.518 10.2225 103.792C12.7688 105.966 13.5825 106.319 15.2625 106.016C16.4963 105.789 17.415 105.031 18.1763 103.59C18.7538 102.478 20.1188 101.215 22.1663 99.85C22.6125 99.5468 23.0588 99.2941 23.1375 99.2941C23.2425 99.2941 23.2688 103.16 23.2425 107.886L23.1638 116.478L15.63 118.904C7.23002 121.608 7.80752 121.204 7.80752 124.034C7.80752 125.424 7.91252 125.753 8.59502 126.586C9.01502 127.092 9.88127 127.926 10.5375 128.431L11.6925 129.366L25.8938 124.944C33.69 122.543 40.9088 120.319 41.9325 120.041L43.7438 119.561L43.9013 120.471C44.61 125.424 45.4238 127.37 46.9988 128.179C47.6288 128.482 48.18 129.038 48.5475 129.72C48.8363 130.276 49.5188 131.312 50.0438 132.02C51.6975 134.117 51.7238 134.269 51.9338 138.691L52.1438 142.81L50.5688 146.879C48.2588 152.742 47.97 154.056 47.97 158.2C47.97 161.031 48.1275 162.623 48.8888 166.818C50.6475 176.521 50.7 176.976 50.3325 179.655C50.07 181.677 50.07 182.41 50.4113 184.33C50.6475 185.568 50.91 187.691 51.015 189.005C51.1463 190.951 51.3563 191.76 52.0388 193.301C52.5375 194.337 53.0625 195.98 53.2463 196.94C53.85 200.049 55.4513 201.413 59.5725 202.373L62.0925 202.955L63.6938 202.424C64.5863 202.146 65.5575 201.893 65.8988 201.893C66.2138 201.893 66.9488 201.615 67.5263 201.262C68.2613 200.832 68.97 200.655 69.915 200.63C71.0438 200.63 71.3325 200.529 72.0413 199.796C73.4063 198.457 73.38 197.976 71.8838 195.955C71.1488 194.969 69.9938 193.503 69.285 192.67C68.5763 191.836 67.605 190.471 67.1063 189.637C65.8725 187.464 64.9538 186.2 63.3 184.406C61.0425 181.929 61.0688 182.031 60.9113 176.244L60.7538 171.139L64.9275 169.547C83.46 162.521 92.2275 159.11 92.5163 158.883C92.7788 158.68 92.8575 157.947 92.805 156.179L92.7263 153.778L90.5213 152.464L88.29 151.15L84.7463 152.363C82.7775 153.02 78.945 154.435 76.1888 155.471C73.4588 156.532 71.2013 157.366 71.1488 157.341C71.07 157.265 71.5688 134.875 71.6475 134.799C71.7 134.774 76.0313 133.258 81.3075 131.413C86.5838 129.568 91.3088 127.799 91.8338 127.471C92.4113 127.117 93.0413 126.384 93.435 125.626L94.0913 124.363L95.7713 125.677C96.69 126.384 98.0288 127.244 98.7375 127.597L99.9975 128.229L99.7875 133.031C99.42 140.991 99.6825 142.608 101.835 146.5C103.515 149.532 104.408 152.792 104.591 156.558C104.749 159.716 104.618 160.525 103.069 165.175C102.334 167.399 102.045 168.713 102.045 169.825C102.045 171.366 102.071 171.417 103.358 172.655L104.67 173.919L106.429 173.742C113.385 173.135 113.07 173.085 117.926 175.435C120.84 176.825 121.365 177.002 124.751 177.532C126.773 177.861 128.794 178.139 129.214 178.139C130.973 178.114 134.07 176.092 134.07 174.955C134.07 173.211 132.469 172.049 128.295 170.785L125.539 169.926L122.651 167.272C121.076 165.807 118.714 163.785 117.454 162.749C115.17 160.879 114.645 160.272 114.251 158.807C114.146 158.377 114.068 152.767 114.094 146.298C114.146 138.085 114.068 133.561 113.805 131.262C113.621 129.442 113.516 127.117 113.569 126.081C113.779 121.583 113.726 120.648 113.149 118.854C112.151 115.796 111.285 114.861 107.794 112.966C106.009 111.98 103.804 110.514 102.544 109.453C100.785 107.962 99.6038 107.254 96.6638 105.89C89.3138 102.453 87.66 101.796 83.0138 100.406C76.74 98.5865 75.0075 97.9042 73.6425 96.8681C72.6713 96.1099 71.6738 95.7309 68.445 94.8464C67.395 94.5684 62.04 88.9331 62.6438 88.7309C62.8013 88.6803 64.2713 88.9331 65.8988 89.3121C68.6025 89.9186 69.2325 89.9692 73.275 89.8933C77.3963 89.8175 77.7113 89.7923 78.1313 89.2868C78.3938 88.9836 79.0238 86.785 79.6013 84.2327C80.835 78.8753 80.9663 75.767 80.1525 72.2796C79.785 70.7128 79.7063 69.5251 79.785 67.8572C79.9163 65.684 79.995 65.4565 81.045 63.7886L82.1738 62.0197L82.0163 60.0738L81.8588 58.128L83.6175 57.6226C86.7675 56.7381 89.655 56.0811 90.4425 56.0811C91.2038 56.0811 91.2825 56.1821 91.6763 57.5215C93.3563 63.3843 95.535 67.3518 98.7638 70.3843C101.153 72.6334 102.99 73.5684 105.353 73.7201C108.083 73.8969 109.369 73.619 111.311 72.5071C112.86 71.5973 113.228 71.4962 114.829 71.4962C115.8 71.471 117.113 71.3699 117.743 71.2688C120.184 70.8139 122.861 68.3121 124.673 64.7995C126.615 61.0847 127.009 58.9367 127.061 52.341L127.114 47.1352L133.939 45.4926L140.764 43.8247L140.843 42.6623C140.895 41.7273 140.79 41.3482 140.318 40.7923L139.688 40.1099L133.099 41.6515C129.45 42.5107 126.379 43.193 126.221 43.193C126.09 43.193 125.775 42.6623 125.539 41.98C123.964 37.6587 120.499 32.5793 117.743 30.5829C115.433 28.915 114.33 28.5359 111.626 28.5612C110.34 28.5612 108.923 28.6876 108.476 28.8392ZM115.59 30.9619C116.43 31.4421 117.533 32.2255 118.005 32.6551C120.42 34.8536 122.756 38.7453 124.069 42.6623C125.329 46.3518 125.539 47.9692 125.539 53.3013C125.513 58.9367 125.303 60.0486 123.465 63.7886C121.523 67.7562 119.055 69.7273 115.59 70.1063L114.068 70.2832L115.039 68.5395C117.428 64.2688 118.163 61.1352 118.163 55.1966C118.163 50.85 117.769 48.3229 116.588 44.6081C115.039 39.8572 111.679 34.8536 108.581 32.7309C107.741 32.1497 107.059 31.5684 107.059 31.4168C107.033 31.2399 107.531 30.8861 108.161 30.5829C109.028 30.1533 109.763 30.0522 111.653 30.0522C113.91 30.0522 114.094 30.1027 115.59 30.9619ZM106.35 33.0847C108.109 33.9439 110.603 36.3446 112.099 38.6695C115.091 43.3193 116.745 49.258 116.745 55.4746C116.745 61.4385 115.301 66.1136 112.361 69.5504C108.03 74.6298 100.969 72.7345 96.5325 65.3049C95.115 62.9042 93.8025 59.7959 93.1463 57.2941C92.8838 56.2832 92.7 55.424 92.7263 55.3735C92.7525 55.3482 95.1938 54.7417 98.1338 54.0341C101.074 53.3266 103.646 52.619 103.83 52.4926C104.644 51.8356 103.568 48.5757 102.623 48.8536C102.386 48.9294 99.9975 49.5107 97.32 50.1172C93.6713 50.9764 92.4375 51.1785 92.28 50.9511C91.86 50.3193 92.595 43.193 93.3038 41.045C93.9338 39.1244 95.6138 36.1424 96.8475 34.7525C97.4775 34.045 98.5013 33.2616 99.2625 32.9078C101.126 32.0738 104.434 32.1497 106.35 33.0847ZM139.714 42.3085V43.0666L133.808 44.5071C130.553 45.3157 127.586 46.0233 127.193 46.0991C126.484 46.2507 126.458 46.2255 126.458 45.2652V44.2796L131.655 43.0666C134.49 42.4096 137.194 41.7778 137.614 41.6515C138.06 41.5504 138.69 41.4746 139.058 41.4998C139.609 41.5504 139.714 41.6767 139.714 42.3085ZM103.043 50.9511C103.121 51.3807 102.938 51.5829 102.255 51.8608C101.415 52.1894 82.3838 56.8392 81.8325 56.8392C81.7013 56.8392 81.57 56.4096 81.57 55.8789V54.8933L88.8675 53.2002C92.8575 52.2399 97.215 51.2038 98.5013 50.9006C101.494 50.1424 102.938 50.1677 103.043 50.9511ZM79.5225 54.6406C80.3888 55.8031 80.3363 57.8247 79.47 58.7345C78.6563 59.5937 77.3963 60.1244 76.1888 60.1244C75.1913 60.1244 75.0863 59.998 75.6638 59.2652C76.1625 58.6081 76.1625 57.2435 75.6638 56.8392C75.2438 56.5107 74.9288 56.5359 71.805 57.2182C70.125 57.5973 69.6788 57.6226 68.9963 57.3446C68.4188 57.1172 68.1825 56.8645 68.1825 56.4601C68.1825 55.6767 68.9175 55.1208 70.4925 54.7923C71.7525 54.5143 71.91 54.5143 72.4613 54.9944C72.7763 55.2724 73.3013 55.6515 73.6425 55.8031C74.2463 56.1063 74.22 56.1316 74.5875 54.9944C74.7188 54.5648 77.79 53.5793 78.4725 53.7562C78.735 53.8067 79.2075 54.211 79.5225 54.6406ZM74.9025 58.4565C74.8238 58.8103 74.2988 59.2652 73.5113 59.6442C71.8313 60.4782 71.7525 60.8825 73.275 60.8825C74.5613 60.8825 76.2938 61.4385 76.635 61.9692C76.74 62.146 76.7663 62.8031 76.6875 63.4601C76.5825 64.193 76.6088 64.6731 76.7663 64.6731C77.1863 64.6731 77.6325 63.4601 77.6325 62.2471C77.6325 61.2363 77.7113 61.0594 78.4725 60.6803C78.945 60.4529 79.6538 59.9222 80.0475 59.5179L80.7825 58.8103V60.3518C80.7825 62.0702 80.5463 62.6262 78.9188 64.85C77.9738 66.1894 77.8688 66.4168 77.9475 67.7056C78 68.6406 78.1313 69.0702 78.3675 69.0197C78.525 68.9944 78.6825 69.045 78.6825 69.146C78.6825 69.2724 78.8663 70.7634 79.0763 72.5071C79.6275 76.9042 79.575 79.785 78.9713 81.832C78.6825 82.7417 78.315 84.4349 78.1313 85.5973C77.8163 87.7706 77.0288 89.1858 76.1363 89.1858C75.8475 89.1858 75.9263 88.9836 76.425 88.4024C76.7925 87.9728 77.1075 87.5432 77.1075 87.4421C77.1075 86.9114 76.6875 86.9872 75.9 87.6442C75.0075 88.4024 73.1438 88.9331 71.3325 88.9331C68.9438 88.9331 61.83 87.1894 60.9375 86.3807C60.1238 85.6479 59.3363 82.6154 59.94 82.6154C60.045 82.6154 60.78 83.146 61.5938 83.7778C62.4075 84.4349 63.5625 85.1677 64.1663 85.4204C65.4 85.9764 68.6813 86.3049 70.0988 86.0522C71.2275 85.85 72.645 84.5865 72.645 83.8031C72.6188 83.3229 72.5138 83.3482 71.7788 84.2074C71.0175 85.0666 70.8075 85.1424 69.6263 85.1424C66.9225 85.1424 64.3238 84.2832 61.3313 82.4132C59.94 81.5287 59.835 81.4024 59.7038 80.2905C59.625 79.6334 59.3363 78.7237 59.1 78.2688C58.4438 77.0053 56.5013 74.6551 55.74 74.1749C55.2675 73.8969 55.0575 73.5432 55.0575 73.0125C55.0575 72.6081 54.9263 71.9764 54.795 71.5973C54.6375 71.2182 54.585 70.8645 54.6638 70.7886C54.9525 70.5107 57.7088 71.3193 58.6538 71.9764C59.205 72.3554 60.1238 73.3157 60.675 74.0991C61.62 75.4385 61.6725 75.5901 61.3575 76.1713C61.1738 76.5251 61.0688 76.8789 61.1738 76.9547C61.2525 77.0305 62.3025 76.98 63.51 76.8031C67.8413 76.2219 69.8625 77.2832 72.1988 81.3518C72.8288 82.489 73.0388 82.1352 72.645 80.5684C72.4088 79.6081 71.9625 78.9006 71.0438 77.915C70.335 77.1569 69.7575 76.2977 69.7575 75.9944C69.7575 75.7164 70.1775 74.7309 70.7025 73.8464C71.4638 72.5071 71.7 71.7995 71.9625 69.6515C72.1463 68.2363 72.3563 67.3266 72.4088 67.6551C72.54 68.4132 72.9863 68.3627 73.2488 67.5793C73.59 66.5937 72.9075 65.8103 70.8338 64.8247C68.97 63.915 68.3663 63.2327 69.1013 62.8536C69.39 62.6767 69.495 62.1966 69.495 61.0341C69.495 58.9872 69.7838 58.6334 71.7788 58.3554C72.645 58.2544 73.7213 57.9764 74.115 57.7742C74.9288 57.3446 75.1388 57.5215 74.9025 58.4565ZM68.7075 58.9114C68.7075 59.2399 68.6025 59.6442 68.4975 59.7959C68.3925 59.9728 62.565 61.4637 55.5563 63.1316C40.6988 66.6695 37.6538 67.3266 34.005 67.8572C32.4038 68.0847 29.7525 68.7417 27.495 69.4746C25.395 70.1569 22.7175 70.9403 21.5363 71.2182C20.355 71.5215 19.2 71.8247 18.9638 71.9006C18.5963 72.0522 18.5438 71.9006 18.6225 70.9655L18.7013 69.8536L27.3638 67.7814C36.7875 65.5323 64.4288 59.0377 66.345 58.6587C68.34 58.2544 68.7075 58.2796 68.7075 58.9114ZM25.9463 59.8211C28.1775 60.4276 29.8575 61.3879 30.9075 62.6515C31.6425 63.5359 32.4038 65.3302 32.1675 65.5576C32.115 65.6081 30.4875 65.9872 28.545 66.4168C26.6025 66.8464 24.7388 67.2507 24.4238 67.3266C23.6363 67.5034 23.6363 67.1244 24.5025 65.0522C24.9225 64.0414 25.5263 63.1316 26.0775 62.6515L26.9963 61.8933H26.235C25.1325 61.8933 24.3975 62.7273 23.085 65.406C22.455 66.7453 21.8775 67.8825 21.825 67.9331C21.7725 67.9836 20.6963 68.3121 19.4363 68.6154C16.7063 69.3229 16.1288 69.146 15.84 67.4782C15.735 66.7453 15.4463 66.2905 14.895 65.8861C14.4488 65.5829 14.1075 65.1533 14.1075 64.9511C14.1075 64.1677 16.26 61.1099 17.2313 60.5034C19.0425 59.341 22.98 59.0377 25.9463 59.8211ZM68.3663 61.9439C68.2875 62.146 68.2088 62.0702 68.2088 61.7923C68.1825 61.5143 68.2613 61.3627 68.34 61.4637C68.4188 61.5395 68.445 61.767 68.3663 61.9439ZM67.3425 62.7525C67.7363 64.2435 68.7863 65.3554 70.0463 65.684L71.07 65.9619L71.0438 67.5287C71.0175 70.258 70.7025 71.6479 69.7575 73.063C69.285 73.7959 68.7075 74.7309 68.4975 75.1352C68.13 75.8428 68.0775 75.8428 66.5288 75.6912C65.6625 75.6154 64.5863 75.5395 64.1138 75.5395C63.3788 75.5395 63.09 75.3121 61.935 73.7959C59.5725 70.7634 58.3388 69.9547 54.9788 69.3482C53.745 69.1208 52.8 68.767 52.0125 68.2363C50.595 67.2255 49.2563 66.6948 48.2588 66.6948C45.66 66.6948 47.1825 66.1894 56.2388 64.0161C61.5938 62.7273 66.1875 61.6659 66.4763 61.6659C66.8963 61.6406 67.08 61.8933 67.3425 62.7525ZM-20.385 62.8031C-16.4737 64.572 -12.1425 70.2832 -10.2262 76.1713C-8.91373 80.2652 -8.62498 82.1858 -8.59873 87.1641C-8.59873 92.3699 -8.96623 94.3663 -10.62 97.7273C-11.67 99.9006 -14.4 102.579 -15.975 103.034C-17.2612 103.388 -20.175 103.438 -20.4112 103.11C-20.49 102.984 -20.0175 101.872 -19.3612 100.633C-18.705 99.4204 -17.865 97.2724 -17.4975 95.8825C-16.8675 93.6081 -16.7887 92.8753 -16.7625 88.8067C-16.7625 85.3193 -16.8675 83.7525 -17.2087 82.1099C-18.8362 74.7309 -21.3037 70.0053 -25.8187 65.6334C-28.6537 62.9042 -28.6275 63.0811 -26.4487 62.2219C-25.215 61.7164 -22.1175 62.0197 -20.385 62.8031ZM-29.9925 64.4457C-24.7425 67.1244 -20.7 73.5179 -18.7837 82.1099C-18.4162 83.7525 -18.3112 85.3699 -18.3112 88.9331C-18.3112 93.0522 -18.39 93.8608 -18.915 95.6298C-20.2537 100.077 -22.7212 103.514 -25.32 104.449C-27.2362 105.157 -29.94 104.929 -32.145 103.893C-35.61 102.251 -39.0225 97.98 -41.2537 92.4962C-41.9625 90.7525 -42.6187 89.0089 -42.6975 88.6045C-42.9075 87.7706 -42.8025 87.7201 -38.655 86.6587C-35.0325 85.7237 -33.3525 85.1677 -33.09 84.7886C-32.7487 84.3085 -32.8537 82.7417 -33.3 82.1605C-33.825 81.4276 -34.2975 81.4529 -39.075 82.489C-41.28 82.9692 -43.2225 83.3735 -43.38 83.3735C-43.7212 83.3735 -43.7475 75.8175 -43.38 74.0738C-42.6712 70.4601 -40.2037 66.1388 -38.025 64.7237C-36.345 63.637 -35.4525 63.4096 -33.3787 63.5107C-32.04 63.5612 -31.305 63.7634 -29.9925 64.4457ZM13.845 66.5179C14.3438 66.7453 14.5275 67.0486 14.58 67.7562L14.6588 68.6912L13.6613 68.4132C13.11 68.2868 12.1125 67.8825 11.4038 67.5034C10.0125 66.7959 9.54002 66.9222 10.38 67.7814C10.695 68.1099 10.9575 68.6912 10.9575 69.0702C10.9575 69.9042 11.4825 70.9403 12.2438 71.5973C12.5588 71.8753 12.795 72.1533 12.795 72.2544C12.795 72.5071 10.2225 73.5179 9.56627 73.5179C9.27752 73.5179 8.41127 72.9619 7.67627 72.2544C6.20627 70.9403 5.07752 70.4601 4.57877 70.9655C4.34252 71.2182 4.36877 71.3446 4.73627 71.6226C5.18252 71.9511 5.18252 71.9764 4.63127 72.128C3.92252 72.3554 3.60752 71.9006 3.79127 70.8645C4.02752 69.6009 4.57877 69.0197 5.76002 68.7164C6.39002 68.5648 7.12502 68.3627 7.38752 68.2868C7.65002 68.211 8.41127 67.6298 9.04127 67.0233L10.17 65.8861L11.6925 66.063C12.5063 66.1641 13.4775 66.3663 13.845 66.5179ZM41.9325 67.5793C41.9325 67.7814 40.41 68.4637 39.9638 68.4637C39.2025 68.4637 39.57 68.0089 40.5675 67.7562C41.775 67.4529 41.9325 67.4276 41.9325 67.5793ZM50.8838 68.8175C52.4063 70.0053 54.27 72.2291 54.27 72.8103C54.27 72.9114 53.4563 72.9872 52.4325 72.9619C51.435 72.9367 50.5425 72.9872 50.4375 73.063C50.3588 73.1641 50.9888 73.4168 51.8288 73.6442C54.1125 74.276 54.795 74.6803 54.7163 75.3627C54.6638 75.8175 54.8213 75.9439 55.5038 75.9944C56.9213 76.1208 58.2863 78.4962 58.6013 81.3518C59.0213 85.3699 59.415 86.4565 61.7775 89.767C62.565 90.8536 63.195 91.8139 63.195 91.8645C63.195 91.9403 62.8013 91.9655 62.355 91.915C61.5675 91.8392 61.4888 91.7634 61.41 90.8789C61.305 89.7417 60.8325 89.8681 60.8325 91.0305C60.8325 91.4854 60.7275 91.9655 60.6225 92.1172C60.3075 92.572 59.31 92.6984 59.1525 92.3193C59.0475 92.0666 58.5488 91.9655 57.5513 91.9655C56.6325 91.9655 56.1338 92.0666 56.2388 92.2182C56.3175 92.3446 56.8163 92.471 57.315 92.471C58.6013 92.471 58.4175 92.8753 56.8425 93.4312C56.0813 93.7092 55.215 94.0377 54.9525 94.1388C54.48 94.3157 54.48 94.2905 55.005 93.5829C55.74 92.5973 55.7663 92.0414 55.11 90.6767C54.4013 89.211 53.5613 88.1749 53.0625 88.1749C52.5638 88.1749 52.59 88.5287 53.115 88.9583C53.7188 89.4385 54.795 91.5865 54.795 92.2941C54.795 92.7237 54.5063 93.1027 53.8763 93.5071C53.3775 93.8356 52.8788 94.3157 52.7475 94.5937C52.6425 94.8717 51.5663 95.6045 50.3588 96.2616L48.18 97.4493L46.71 97.1208C43.8225 96.4637 39.8325 96.9439 40.7513 97.8284C40.83 97.8789 41.4863 97.8536 42.2475 97.7525C43.455 97.6009 45.2138 97.7778 46.3688 98.1821C46.6313 98.258 45.9225 99.0919 44.2688 100.76C42.9038 102.099 41.67 103.236 41.5125 103.287C41.355 103.312 41.0925 103.085 40.935 102.731C40.4625 101.72 38.8088 100.077 36.6825 98.5359C33.3488 96.1099 31.7738 95.3266 27.1013 93.7092L26.0513 93.3302L26.1563 91.2074C26.2088 90.0197 26.2875 88.9836 26.3663 88.8572C26.55 88.554 27.6788 88.6551 27.9675 89.0089C28.1513 89.1858 28.4138 89.9692 28.5713 90.7273C28.9388 92.3951 29.4375 93.2291 30.12 93.2291C30.7763 93.2291 30.8025 92.7995 30.1988 92.1424C29.9363 91.8897 29.595 91.0811 29.4375 90.3735C29.28 89.6406 29.07 88.7814 28.965 88.4276C28.86 88.0233 28.9125 87.619 29.1488 87.3157C29.4638 86.8861 29.6213 86.8861 31.0125 87.1641C32.535 87.4673 33.27 87.3915 33.27 86.9114C33.27 86.785 32.85 86.6587 32.3513 86.6587C31.695 86.6587 31.1963 86.4565 30.7763 86.0269C29.6475 84.9655 30.0938 84.2327 31.695 84.5612C32.2988 84.6623 32.4825 84.6118 32.4825 84.3085C32.4825 83.7273 31.7738 83.6009 29.7263 83.8536C26.76 84.2074 25.2375 83.4493 25.815 81.9331C26.0513 81.276 26.2088 81.2255 28.23 80.9475C30.75 80.5937 31.1175 80.3915 33.9263 77.7886C36.21 75.7164 37.26 75.0847 39.6225 74.4276C41.3813 73.9475 41.9325 73.4926 41.9325 72.5071C41.9325 71.5215 41.4338 71.2941 41.25 72.2038C41.1188 72.8861 40.9088 72.9872 38.31 73.7453L35.5013 74.554L33.27 76.7778C32.0363 78.0161 30.7238 79.2038 30.3563 79.4312C29.9625 79.6587 28.755 79.9367 27.6263 80.0377C26.2088 80.1641 25.5263 80.341 25.395 80.5937C25.29 80.7959 25.08 81.2507 24.8963 81.554C24.66 82.0089 24.6338 83.3229 24.7388 86.6081C24.8963 90.2724 24.8438 91.3843 24.5025 92.7995C23.7413 95.9078 23.1638 96.8681 20.5388 99.2435C19.2263 100.457 17.6775 102.099 17.1 102.883C16.0238 104.399 14.895 105.056 13.8713 104.727C12.5325 104.323 7.70252 98.7886 6.28502 96.0341L5.31377 94.1388L5.23502 87.9475C5.18252 84.5107 5.18252 81.2255 5.23502 80.6442L5.31377 79.5323L6.02252 80.063C6.46877 80.4168 6.78377 80.9475 6.88877 81.6045C7.09877 82.8428 7.46627 82.9186 7.70252 81.7309C7.91252 80.6442 7.72877 80.1388 6.99377 79.8861C6.67877 79.7598 5.97002 78.9511 5.41877 78.0414L4.44752 76.424L6.57377 75.8933C7.75502 75.5901 8.80502 75.4132 8.93627 75.4637C9.04127 75.5143 9.12002 75.7923 9.12002 76.045C9.12002 76.9042 9.59252 76.8284 9.90752 75.9186C10.3275 74.6803 11.4825 73.8717 13.6613 73.2652C17.3363 72.2544 17.5463 71.9764 15 71.572C13.1625 71.2688 12.0075 70.5359 12.0075 69.6767C12.0075 68.8933 12.69 68.8681 14.9738 69.6262L17.1263 70.359L17.1 71.6226C17.0475 74.5793 16.1288 75.8933 12.7425 77.8392C11.7713 78.3699 10.905 78.9511 10.8 79.1027C10.5113 79.5576 10.59 81.3518 10.9313 81.6803C11.1413 81.8825 11.22 81.7814 11.22 81.276C11.22 80.8969 11.325 80.5937 11.4563 80.5937C11.6925 80.5937 11.8238 81.3771 12.165 84.258C12.3225 85.7489 12.3488 85.7995 14.6063 87.998L16.8638 90.2219V93.0522C16.8638 94.619 16.9688 95.9331 17.1263 96.0089C17.3888 96.1352 17.8613 95.3518 18.2288 94.1388C18.3863 93.5576 18.7013 93.3049 19.5413 93.0522C21.09 92.5468 22.35 91.0811 23.0063 89.0594C23.6363 87.1641 23.7413 85.0414 23.2425 85.193C23.0588 85.2688 22.7438 86.0522 22.4813 86.9619C21.9038 89.1605 20.8013 91.0558 19.6463 91.8392C18.4388 92.6226 18.3075 92.6226 18.3075 91.8645C18.3075 90.9042 17.625 89.6154 16.1813 87.7959L14.8425 86.1027L15.42 85.4962C15.7613 85.1677 16.9163 84.5612 18.0188 84.1063C20.6175 83.0702 20.8275 82.8681 19.1475 82.8681C18.2813 82.8681 17.2838 83.0955 16.3125 83.4998C15.4988 83.8536 14.79 84.1316 14.7375 84.1316C14.685 84.1316 14.5275 83.6767 14.3438 83.146C14.0813 82.2616 14.1075 82.0089 14.6063 80.998C15.42 79.406 17.0475 77.8645 18.7538 77.1316C19.935 76.6009 20.25 76.5504 20.4338 76.8284C20.565 77.0305 20.67 77.3338 20.67 77.4854C20.67 78.2182 21.195 77.7381 21.4838 76.7525C22.56 72.8356 28.2038 69.424 34.53 68.8428C36.5513 68.6406 39.3863 69.1713 40.8563 70.0053C41.8538 70.5612 42.09 70.5107 41.6963 69.7778C41.1713 68.8428 42.7463 68.0341 45.7388 67.7056C49.125 67.3518 49.0463 67.3266 50.8838 68.8175ZM23.0588 72.4312C22.2188 73.8211 21.825 74.0233 20.04 74.0233C17.2838 74.0233 17.4938 73.3663 20.5388 72.5323C22.9538 71.8753 23.4 71.8753 23.0588 72.4312ZM7.30877 73.3157C7.72877 73.8464 7.96502 74.5287 7.70252 74.5287C7.65002 74.5287 4.31627 75.3121 0.300016 76.2977C-3.74248 77.258 -7.23373 78.0666 -7.49623 78.0666C-8.07373 78.0666 -8.62498 76.8536 -8.20498 76.4493C-7.91623 76.1713 5.34002 72.8356 6.31127 72.785C6.60002 72.7598 7.02002 73.0125 7.30877 73.3157ZM19.2 75.5143C19.5675 75.6406 19.2525 75.8933 17.73 76.6262C15.735 77.5612 13.32 79.6587 13.32 80.4673C13.32 80.6695 13.215 80.8464 13.0575 80.8464C12.9263 80.8464 12.795 80.4421 12.795 79.9619C12.795 79.1785 12.9525 79.0016 14.1863 78.2435C14.9213 77.7634 16.0238 76.9042 16.6013 76.3229C17.5988 75.3121 18.1763 75.1352 19.2 75.5143ZM3.87002 77.5865C4.02752 78.1424 4.13252 79.0775 4.08002 79.6587L4.00127 80.7201L3.55502 79.9619C3.03002 79.0269 2.71502 77.4601 2.92502 76.9294C3.18752 76.2471 3.58127 76.5251 3.87002 77.5865ZM-33.9825 83.5504C-33.9037 84.2832 -33.9825 84.3843 -34.9012 84.6118C-38.55 85.572 -55.56 89.6659 -55.6387 89.6154C-55.665 89.5648 -55.77 89.0847 -55.875 88.5034L-56.0325 87.4673L-48.8662 85.7995C-44.9025 84.8897 -40.2562 83.8031 -38.5237 83.3988C-34.56 82.4637 -34.0875 82.4637 -33.9825 83.5504ZM27.7575 84.915C29.3588 85.2435 29.49 85.8247 28.2563 86.9114C27.5213 87.5937 26.5238 88.0991 26.3138 87.8717C26.2875 87.8464 26.1563 87.0883 26.0513 86.2038C25.8413 84.4601 25.7888 84.5107 27.7575 84.915ZM-56.5575 88.8825C-56.505 89.3374 -56.5837 89.6912 -56.7412 89.6912C-56.8987 89.6912 -57.03 89.5395 -57.03 89.3627C-57.03 89.211 -57.1087 88.7814 -57.2137 88.4529C-57.3187 87.998 -57.2662 87.8717 -57.0037 87.9728C-56.7937 88.0233 -56.61 88.4529 -56.5575 88.8825ZM64.7175 93.6334C65.5313 93.8608 65.4525 94.1641 64.5075 94.3663C63.2475 94.6442 63.5888 94.9222 65.7675 95.3771C68.445 95.9583 71.805 97.146 72.4875 97.7525C73.3013 98.4854 75.06 99.193 81.1763 101.215C85.8488 102.756 86.5575 103.059 85.9013 103.211C83.0663 103.818 80.4675 105.258 79.4438 106.825C77.9213 109.124 76.845 113.142 76.425 117.994L76.2413 119.966L73.3275 117.944C70.02 115.67 69.8625 115.644 67.1325 116.933C65.7675 117.59 65.6888 117.666 65.5575 118.702L65.4263 119.789L64.3763 118.778C62.8275 117.211 61.1213 116.68 57.1313 116.529C54.4013 116.428 53.5613 116.503 52.4063 116.857C49.8338 117.691 46.9725 121.153 46.5 124.034C46.395 124.615 46.2375 125.02 46.1325 124.893C45.5813 124.287 45.0038 116.958 45.4763 116.251C45.555 116.099 45.6338 114.962 45.6338 113.698C45.6338 111.677 45.555 111.272 45.03 110.54C44.715 110.059 44.19 109.579 43.875 109.428C42.8513 108.998 42.3788 105.864 43.0875 104.272C43.6125 103.034 46.0538 100.633 48.4163 98.9908C53.8238 95.2255 61.3313 92.7742 64.7175 93.6334ZM32.115 97.3229C36.3938 99.7742 38.5725 101.67 39.8325 104.07C40.62 105.586 40.62 105.662 40.0425 105.207C39.36 104.677 28.2825 95.8067 27.915 95.4529C27.7575 95.3266 27.81 95.2507 28.0725 95.2507C28.2825 95.2507 30.12 96.1858 32.115 97.3229ZM27.285 96.5648C29.9625 98.5865 39.4388 106.193 40.4363 107.103C41.2763 107.861 41.565 108.467 42.3525 110.868C42.8775 112.46 43.245 113.774 43.1925 113.825C43.0613 113.951 38.205 109.958 31.065 103.843C28.0463 101.265 25.29 98.9403 24.9488 98.6623L24.3188 98.1569L24.9225 96.8175C25.2375 96.1099 25.5788 95.5034 25.6838 95.5034C25.7888 95.5034 26.4975 95.9836 27.285 96.5648ZM30.3825 110.337C30.3825 114.81 30.435 115.493 30.8025 115.644C31.0388 115.72 33.1125 115.189 35.3963 114.482L39.57 113.168L40.305 113.673C40.6988 113.951 41.67 114.81 42.4575 115.568C43.6388 116.731 43.8488 117.059 43.6125 117.413C43.4288 117.691 37.6538 119.662 27.7313 122.846L12.1388 127.85L10.7738 126.485C9.43502 125.171 9.38252 125.045 9.38252 123.756V122.366L17.1 119.915C23.7413 117.818 24.8438 117.388 24.975 116.908C25.0538 116.605 25.1325 112.839 25.1325 108.568V100.785L27.7575 102.984L30.3825 105.182V110.337ZM92.0175 105.258C96.2175 106.774 98.8425 108.215 102.045 110.767C104.014 112.359 105.72 113.496 107.19 114.179C109.763 115.366 110.419 116.175 111.731 119.688C112.755 122.341 112.755 123.175 111.758 125.07C110.839 126.814 110.786 127.37 111.469 128.305C112.44 129.644 112.676 133.132 112.676 146.424C112.676 157.467 112.729 158.933 113.123 160.07C113.621 161.46 114.724 162.597 117.454 164.594C118.346 165.251 120.236 166.792 121.654 168.056C124.515 170.633 125.014 170.911 128.636 172.074C131.314 172.908 132.758 173.818 132.758 174.601C132.758 175.031 132.705 175.031 132.154 174.5C131.314 173.691 126.72 172.655 126.72 173.287C126.72 173.489 129.791 174.601 130.421 174.601C130.631 174.601 131.051 174.753 131.314 174.955C131.76 175.258 131.786 175.41 131.498 175.966C131.235 176.521 131.025 176.623 130.001 176.623C129.371 176.623 128.033 176.521 127.061 176.37C126.064 176.244 124.358 176.016 123.203 175.89C121.418 175.688 121.024 175.561 120.289 174.854C119.738 174.348 119.37 174.146 119.239 174.323C119.134 174.5 118.031 174.07 116.141 173.11C112.729 171.392 111.994 171.164 111.154 171.67C110.393 172.124 106.639 172.402 105.431 172.074C102.964 171.417 102.675 169.648 104.381 165.579C104.985 164.164 105.589 162.42 105.72 161.688C106.088 159.893 106.035 155.673 105.615 153.298C105.3 151.478 105.326 151.352 105.773 151.352C106.665 151.352 106.271 150.189 104.539 147.662C102.596 144.857 101.888 143.215 101.363 140.485C100.916 138.034 100.916 136.72 101.389 132.904C101.914 128.659 101.94 128.608 102.675 128.608C103.778 128.608 104.933 128.305 104.933 128.002C104.933 127.825 104.198 127.547 103.305 127.37C101.205 126.966 99.0788 125.929 96.5588 124.085C93.3563 121.734 93.2775 121.709 86.19 120.799C82.9613 120.37 82.305 120.193 80.3363 119.258L78.0788 118.197L78.2625 116.554C78.4988 114.254 79.3388 110.464 79.9688 108.922C81.2288 105.738 83.4338 104.424 87.6863 104.373C89.13 104.348 89.97 104.525 92.0175 105.258ZM35.265 109.402L38.3625 112.031L35.265 113.016C33.5588 113.547 32.0888 113.901 31.9838 113.825C31.695 113.547 31.6163 106.547 31.905 106.648C32.0625 106.698 33.5588 107.937 35.265 109.402ZM44.4263 111.803C44.5838 112.561 44.5838 112.561 44.1638 111.702C43.7175 110.742 43.665 110.464 44.0063 110.792C44.1375 110.944 44.3213 111.373 44.4263 111.803ZM72.645 119.132C74.535 120.597 76.2675 121.532 77.1075 121.532C77.3963 121.532 78.0263 121.381 78.4988 121.204C79.26 120.901 79.6013 120.926 81.9638 121.558C83.4075 121.937 86.1638 122.417 88.08 122.619C89.9963 122.821 91.7288 123.124 91.9388 123.301C92.8575 124.034 92.1225 125.677 90.5213 126.46C88.1325 127.597 68.7863 134.319 68.5238 134.092C68.4713 134.016 68.3663 133.182 68.3663 132.247L68.3138 130.554L76.425 127.951C86.0063 124.893 87.6075 124.312 87.6075 124.034C87.6075 123.554 86.3213 123.883 78.315 126.309C73.7738 127.698 69.6525 128.911 69.1538 128.987C68.2875 129.139 68.235 129.114 68.1038 128.305C67.71 126.207 66.8438 118.449 66.975 118.323C67.0538 118.247 67.7363 117.994 68.4975 117.742C70.125 117.236 70.2038 117.236 72.645 119.132ZM61.0425 118.146C64.665 119.586 66.87 124.944 66.975 132.525C67.0013 135.254 66.9225 136.215 66.6075 136.695L66.2138 137.327L66.135 136.745C66.0825 136.442 65.9513 136.189 65.82 136.189C65.295 136.189 65.0325 137.276 65.0325 139.373C65.0325 141.471 64.98 141.623 63.93 143.493C63.0638 144.933 62.6963 145.969 62.3813 147.713C61.935 150.038 61.5938 150.897 59.9138 153.879C57.8925 157.493 56.1338 164.215 56.79 165.857C57.0525 166.489 57.42 166.059 57.42 165.15C57.42 162.42 61.1738 152.843 61.9613 153.601C62.0925 153.727 62.2238 155.446 62.25 157.467C62.2763 161.435 62.3813 161.005 60.1763 164.998L59.3888 166.388L59.415 172.832C59.415 181.525 59.5725 182.157 62.5125 185.67C63.3 186.605 64.665 188.449 65.5575 189.763C66.4763 191.077 67.9463 193.023 68.8388 194.059C69.7313 195.096 70.7813 196.435 71.175 197.016C71.805 197.901 71.8575 198.128 71.5688 198.558C70.9125 199.568 70.1775 199.745 68.8125 199.24C67.605 198.81 67.5525 198.81 67.2375 199.265C66.345 200.529 66.24 200.554 62.1188 201.312C61.1738 201.489 58.0763 200.554 56.37 199.568L54.9263 198.734L54.585 196.485C54.3488 194.868 54.0075 193.756 53.3775 192.568C52.5638 191.077 52.4588 190.572 52.2225 187.742C52.065 185.872 52.065 184.558 52.1963 184.507C52.6688 184.33 52.4325 183.218 51.7763 182.485C51.1463 181.753 51.12 181.651 51.4088 180.489C51.5925 179.832 51.7238 177.861 51.7238 176.117C51.7238 173.464 51.54 172.099 50.6475 167.525C49.7025 162.825 49.545 161.637 49.545 158.655C49.545 154.814 49.7813 153.146 50.7788 150.215C51.33 148.623 51.5138 148.319 51.6713 148.698C51.8025 148.976 52.2488 150.114 52.695 151.251C54.1913 155.092 55.005 155.218 53.85 151.428C53.2463 149.482 53.115 148.521 53.1413 146.929C53.1675 145.818 53.2463 142.532 53.2988 139.651L53.4038 134.395L51.4613 131.438C48.5475 126.966 47.76 123.883 48.9675 121.608C50.2275 119.258 51.8288 118.121 54.375 117.716C56.2125 117.438 59.8875 117.666 61.0425 118.146ZM77.6325 120.016C77.6325 120.142 77.5013 120.269 77.3438 120.269C77.2125 120.269 77.16 120.142 77.2388 120.016C77.3175 119.864 77.4488 119.763 77.5275 119.763C77.58 119.763 77.6325 119.864 77.6325 120.016ZM70.02 147.182C70.02 157.872 70.0463 158.933 70.44 158.933C70.86 158.933 78.8925 156.077 84.9038 153.803L87.8438 152.691L89.7075 153.677L91.5713 154.662L91.3875 156.229C91.3088 157.088 91.1513 157.872 91.0463 157.973C90.8888 158.15 60.9375 169.547 60.6488 169.547C60.255 169.547 60.9113 167.298 62.0925 164.72C63.9563 160.626 64.0875 159.868 63.9038 154.763C63.6938 149.633 63.9038 148.092 65.295 144.655C65.8725 143.265 66.6338 141.117 67.0013 139.904C67.7363 137.453 68.5238 135.81 69.0225 135.608C70.0463 135.204 70.02 135.052 70.02 147.182Z" fill="#16A34A"/>
<path d="M110.471 31.0377C109.92 31.3915 110.288 31.6947 111.994 32.3012C113.149 32.7056 114.068 33.3121 115.564 34.6514C117.244 36.1677 117.743 36.7994 118.688 38.7453C120.788 42.9655 121.733 47.2868 121.916 53.5792C122.153 60.3265 121.103 63.8391 117.821 67.3012C116.168 69.0702 115.958 69.7525 117.244 69.0955C119.134 68.1604 121.47 64.6225 122.415 61.2615C123.071 58.9366 123.203 52.8464 122.678 49.0052C121.654 41.5503 119.711 36.9258 116.299 33.8428C114.225 31.9727 111.285 30.5576 110.471 31.0377Z" fill="#16A34A"/>
<path d="M101.048 33.1352C101.126 33.3121 102.071 33.8933 103.2 34.4493C106.035 35.7886 107.741 37.4818 109.238 40.4637C111.548 44.9619 112.545 49.9402 112.545 56.6623C112.545 63.1063 111.626 65.9619 108.634 69.0702C107.741 69.9799 107.033 70.8392 107.033 70.9908C107.033 72.2543 110.734 68.868 111.863 66.5937C113.333 63.6117 113.91 59.2904 113.569 54.0594C112.781 42.4095 109.08 35.3337 102.675 33.2363C101.179 32.7561 100.916 32.7308 101.048 33.1352Z" fill="#16A34A"/>
<path d="M77.265 55.5251C77.1863 55.6515 77.2388 55.8789 77.3963 56.0811C77.5275 56.2832 77.6325 56.9908 77.6325 57.6478C77.6325 58.8103 77.9475 59.3915 78.2888 58.8608C78.4988 58.5071 78.525 56.7886 78.315 56.1316C78.1313 55.6009 77.475 55.2219 77.265 55.5251Z" fill="#16A34A"/>
<path d="M75.9788 66.619C75.69 66.8717 75.7688 68.6659 76.0838 68.8428C76.5038 69.0955 76.635 68.8681 76.7663 67.5793C76.8713 66.6948 76.8188 66.4421 76.53 66.4421C76.32 66.4421 76.0575 66.5179 75.9788 66.619Z" fill="#16A34A"/>
<path d="M74.3775 73.5179C74.6663 74.9583 74.6663 77.5612 74.4038 79.2543C74.22 80.3663 74.2463 80.5937 74.5613 80.5937C75.8475 80.5937 75.8475 73.7453 74.5613 72.7092C74.1938 72.4312 74.1675 72.507 74.3775 73.5179Z" fill="#16A34A"/>
<path d="M7.54501 69.0955C7.54501 69.2977 7.83376 69.6009 8.17501 69.7778C8.54251 69.9547 9.17251 70.5865 9.61876 71.1677C10.7738 72.7092 11.43 72.5829 10.59 71.0161C10.1175 70.1569 8.46376 68.7164 7.93876 68.7164C7.72876 68.7164 7.54501 68.8933 7.54501 69.0955Z" fill="#16A34A"/>
<path d="M43.035 71.7742C43.14 72.5323 44.2425 72.9114 46.8675 73.063C48.4425 73.1388 48.7575 73.0883 48.705 72.785C48.6 72.3049 47.6813 72.0522 45.7913 72.0269C44.8463 72.0016 44.0325 71.85 43.6125 71.572C42.9563 71.1677 42.93 71.1677 43.035 71.7742Z" fill="#16A34A"/>
<path d="M43.6125 74.1244C44.085 76.0197 44.19 75.8175 41.9063 77.3085C39.7013 78.7237 38.1525 80.1894 38.3363 80.6695C38.52 81.2507 38.9663 81.0738 39.3863 80.2146C39.8588 79.2796 40.6988 78.7995 42.6675 78.3193C44.5838 77.8392 45.345 75.9944 44.295 74.3266C43.6913 73.3663 43.3763 73.2652 43.6125 74.1244Z" fill="#16A34A"/>
<path d="M46.1325 74.7308C46.1325 75.0088 46.8675 75.6406 47.6813 76.0449C48.0488 76.2218 49.0463 76.3482 49.9125 76.3482C50.7525 76.3229 51.6975 76.4493 51.9863 76.5756C52.695 76.9547 52.8788 76.6514 52.3013 76.0449C51.9075 75.6406 51.4875 75.5395 50.1488 75.5395C48.9938 75.5395 48.1538 75.3879 47.445 75.0341C46.29 74.4781 46.1325 74.4276 46.1325 74.7308Z" fill="#16A34A"/>
<path d="M53.7975 77.9908C54.3225 78.5215 54.8213 79.2038 54.9263 79.5071C55.11 80.1641 55.5825 80.2905 55.5825 79.7092C55.5825 78.6479 54.165 77.0558 53.2463 77.0558C52.9838 77.0558 53.1938 77.4096 53.7975 77.9908Z" fill="#16A34A"/>
<path d="M47.445 77.4601C47.445 77.5865 47.6812 78.2941 47.97 79.0269C48.6525 80.7201 48.6525 82.211 47.9962 82.8428C47.7075 83.1208 46.9462 83.424 46.2637 83.4998C44.5575 83.7526 43.4287 84.5612 43.2187 85.6984C43.14 86.1785 42.6937 87.0377 42.2475 87.5684C41.565 88.3518 41.4862 88.5793 41.8012 88.6298C42.4575 88.7562 43.245 87.9475 43.9275 86.4818C44.6362 84.9655 45.2662 84.5107 46.8937 84.258C48.2325 84.0558 49.545 82.9692 49.545 82.1352C49.545 81.4782 49.6762 81.4782 50.4112 82.1352C50.91 82.5648 51.1987 82.6154 52.5637 82.489C53.5087 82.3879 54.4537 82.4385 54.9 82.5901C55.4512 82.8175 55.74 82.7923 56.0287 82.5901C56.3175 82.3374 56.1862 82.211 55.2675 81.8067C54.4012 81.4276 53.7712 81.3266 52.6162 81.4276C50.8575 81.5793 49.545 81.2002 49.545 80.5179C49.545 79.8861 48.6787 78.2941 47.9962 77.7128C47.6812 77.4349 47.445 77.3338 47.445 77.4601Z" fill="#16A34A"/>
<path d="M8.59503 80.5937C8.59503 81.0233 8.80503 81.7814 9.04128 82.3121L9.48753 83.2471L9.59253 82.3879C9.72378 81.1244 9.43503 79.8356 8.98878 79.8356C8.72628 79.8356 8.59503 80.0883 8.59503 80.5937Z" fill="#16A34A"/>
<path d="M33.4013 81.7309C32.8238 81.933 32.01 82.0846 31.6163 82.0846C31.0388 82.1099 30.8813 82.211 30.96 82.5395C31.0913 83.2471 32.2988 83.2218 33.8738 82.5142C34.6613 82.1605 35.4225 81.8572 35.58 81.8572C35.7375 81.8572 35.9475 81.7309 36.0263 81.6045C36.2625 81.2507 34.6875 81.3265 33.4013 81.7309Z" fill="#16A34A"/>
<path d="M38.1525 82.0089C38.0738 82.2363 37.995 83.5504 37.995 84.915C37.995 86.3049 37.8638 87.6695 37.7063 87.9728C37.5488 88.2507 36.9975 88.6298 36.4988 88.8572C35.79 89.1352 35.6325 89.2868 35.8688 89.5143C36.3938 90.0197 38.2838 89.211 38.8613 88.2255C39.3338 87.4421 39.36 87.2146 39.045 85.1424C38.8613 83.9294 38.7825 82.6154 38.8875 82.2616C39.0188 81.7814 38.94 81.6045 38.6775 81.6045C38.4675 81.6045 38.2313 81.7814 38.1525 82.0089Z" fill="#16A34A"/>
<path d="M50.07 82.9944C50.07 83.0955 50.2538 83.4998 50.49 83.9294C50.7263 84.359 51.1463 85.3446 51.4088 86.0775C51.9863 87.7201 51.7763 88.2002 50.2013 88.9836C48.915 89.6154 47.97 90.424 47.97 90.9042C47.97 91.1569 48.18 91.1316 48.8625 90.7273C49.335 90.424 49.965 90.1966 50.2538 90.1966C50.9625 90.1966 52.17 89.2616 52.17 88.6803C52.17 87.897 52.7213 87.7453 55.32 87.9222C56.685 88.0233 57.8663 88.0486 57.9188 88.0233C57.9713 87.9728 57.8925 87.7706 57.7088 87.5937C57.3413 87.1388 54.585 86.8609 53.535 87.1641L52.695 87.3663L52.17 85.6731C51.8813 84.7381 51.3825 83.7273 51.0413 83.424C50.4375 82.8933 50.07 82.7164 50.07 82.9944Z" fill="#16A34A"/>
<path d="M56.2388 83.6767C56.3438 84.1316 56.5013 84.9403 56.6063 85.471C56.685 86.0016 56.895 86.3807 57.0263 86.3554C57.3675 86.2544 57.21 83.6009 56.8425 83.1966C56.3175 82.5901 56.0288 82.8428 56.2388 83.6767Z" fill="#16A34A"/>
<path d="M32.745 84.6118C32.745 84.9908 34.0837 85.9006 34.6087 85.9006C35.2912 85.9006 37.2075 85.1425 37.2075 84.8645C37.2075 84.7381 36.42 84.7128 35.3962 84.7887C34.1887 84.915 33.5587 84.8645 33.4275 84.6623C33.1912 84.3338 32.745 84.2832 32.745 84.6118Z" fill="#16A34A"/>
<path d="M7.88628 88.2255C7.96503 89.2363 8.22753 90.6767 8.46378 91.4348C9.35628 94.2399 13.425 97.2724 14.685 96.0594C14.8688 95.8825 14.5013 95.5034 13.425 94.8464C10.1438 92.8753 9.61878 92.0413 8.49003 87.0883C8.38503 86.7092 8.20128 86.406 8.01753 86.406C7.83378 86.406 7.78128 86.9619 7.88628 88.2255Z" fill="#16A34A"/>
<path d="M58.4175 89.6406C58.89 90.1966 59.2575 90.9547 59.2575 91.3337C59.2575 91.7633 59.3888 91.9655 59.5988 91.8897C60.0713 91.7381 59.9138 90.2218 59.31 89.4637C59.0475 89.1099 58.5488 88.7561 58.2075 88.7309C57.63 88.6298 57.63 88.6803 58.4175 89.6406Z" fill="#16A34A"/>
<path d="M37.995 90.0702C37.995 90.2977 38.3362 90.8283 38.7562 91.2327C39.4912 91.9403 39.6487 91.9655 41.46 91.915C43.1925 91.8392 43.4812 91.915 44.4 92.5468C45.6075 93.3554 46.29 93.406 47.1825 92.7236C47.55 92.4457 48.1275 92.2182 48.4687 92.2182C48.9937 92.2182 49.0462 92.1424 48.81 91.915C48.5737 91.6875 48.2325 91.6875 47.3137 91.915C45.66 92.3446 45.24 92.294 44.6625 91.6875C44.3212 91.3085 43.98 91.2074 43.455 91.3085C43.035 91.3843 42.72 91.3338 42.72 91.2074C42.72 91.0558 42.1687 90.9547 41.4862 90.9547C40.6462 90.9547 39.9112 90.7525 39.1237 90.3229C38.1787 89.767 37.995 89.7417 37.995 90.0702Z" fill="#16A34A"/>
<path d="M33.5063 91.4601C34.1888 92.0161 36.525 92.1677 36.8138 91.6876C37.0763 91.3085 37.0238 91.2832 34.845 91.1316L32.8763 90.9547L33.5063 91.4601Z" fill="#16A34A"/>
<path d="M48.8888 93.6587C49.0725 94.72 49.6763 95.5034 50.2538 95.5034C50.4638 95.5034 50.595 95.4276 50.5425 95.3013C50.49 95.2002 50.175 94.5937 49.86 93.9114C49.125 92.4709 48.6263 92.3193 48.8888 93.6587Z" fill="#16A34A"/>
<path d="M12.48 101.72C12.06 102.124 12.2963 102.327 13.1888 102.327C13.6875 102.327 14.3963 102.453 14.7638 102.63C15.5775 102.984 15.945 102.706 15.3675 102.175C14.9213 101.72 12.795 101.392 12.48 101.72Z" fill="#16A34A"/>
<path d="M58.3388 96.3879C57.42 97.0955 56.265 97.6768 55.3463 97.9295C51.5663 98.9403 51.3825 99.0414 48.6263 101.695C45.9225 104.298 44.295 106.648 44.295 107.987C44.295 109.327 45.0563 108.644 46.29 106.269C47.2613 104.298 47.8125 103.565 49.3088 102.2C51.3038 100.406 52.3275 99.85 55.215 99.0666C57.42 98.4601 60.3075 96.5648 60.3075 95.7562C60.3075 95.0233 60.0713 95.1244 58.3388 96.3879Z" fill="#16A34A"/>
<path d="M67.2638 98.0558C65.2163 98.637 57.42 101.568 55.53 102.478C54.2175 103.135 53.22 104.146 53.22 104.879C53.22 105.536 53.64 105.485 54.7688 104.626C56.8163 103.085 58.0238 102.529 63.6938 100.457C69.39 98.3843 71.2275 97.4998 69.7575 97.5504C69.39 97.5504 68.2875 97.7778 67.2638 98.0558Z" fill="#16A34A"/>
<path d="M70.2825 99.6984C69.7838 99.9258 68.3663 100.305 67.1325 100.583C63.3263 101.417 62.9063 101.568 60.8588 102.958C59.7563 103.691 58.47 104.399 57.9975 104.525C56.895 104.803 56.79 105.207 57.8138 105.308C58.995 105.46 60.4125 104.955 61.8038 103.868C63.615 102.503 63.9038 102.377 67.0538 101.695C70.4663 100.987 71.3063 100.684 71.5163 100.153C71.7788 99.4962 71.2538 99.3193 70.2825 99.6984Z" fill="#16A34A"/>
<path d="M73.2488 101.619C72.9338 101.948 72.3038 102.933 71.8575 103.818C71.175 105.106 70.9913 105.814 70.86 107.558C70.755 109.352 70.7813 109.706 71.0963 109.605C71.3325 109.529 71.6213 108.619 71.91 107.077C72.1725 105.561 72.645 104.07 73.17 103.085C74.0888 101.366 74.115 100.735 73.2488 101.619Z" fill="#16A34A"/>
<path d="M57.3938 109.301C56.9475 109.832 57.3675 110.059 59.1263 110.312C60.2288 110.438 60.6225 110.666 61.62 111.651C62.2763 112.283 63.2475 113.521 63.7725 114.406C64.7175 115.922 65.5575 116.453 65.5575 115.518C65.5575 115.012 63.9825 112.41 62.8538 111.045C61.4625 109.352 58.2338 108.316 57.3938 109.301Z" fill="#16A34A"/>
<path d="M102.99 113.42C102.885 113.547 103.174 114.659 103.594 115.897C104.093 117.312 104.408 118.904 104.513 120.244C104.67 122.493 104.775 122.796 105.221 122.366C105.431 122.164 105.484 121.103 105.405 119.207C105.3 116.68 105.221 116.175 104.513 114.861C103.751 113.37 103.279 112.94 102.99 113.42Z" fill="#16A34A"/>
<path d="M93.8288 118.904C93.3563 119.359 93.75 119.814 95.1675 120.42C95.9813 120.774 97.1363 121.482 97.7138 122.012C98.2913 122.568 99.2888 123.251 99.9188 123.554C101.389 124.262 103.568 124.489 104.25 123.984C105.011 123.428 104.513 122.998 103.121 123.049C100.995 123.124 100.864 123.074 99.1575 121.659C96.69 119.612 94.3538 118.399 93.8288 118.904Z" fill="#16A34A"/>
<path d="M106.665 164.669C106.166 166.085 106.14 167.07 106.56 167.475C106.928 167.828 109.395 167.879 109.395 167.525C109.395 167.373 109.159 167.272 108.844 167.272C108.555 167.272 108.083 167.146 107.768 166.994C107.295 166.742 107.269 166.565 107.426 165.099C107.636 163.153 107.269 162.951 106.665 164.669Z" fill="#16A34A"/>
<path d="M59.205 130.781C57.0787 132.904 56.79 133.283 57.0262 133.662C57.3412 134.168 58.155 133.89 59.1262 132.98C60.8587 131.363 62.2237 128.861 61.3575 128.861C61.2262 128.861 60.255 129.72 59.205 130.781Z" fill="#16A34A"/>
<path d="M62.9325 129.821C62.9325 130.049 63.3262 130.807 63.825 131.464C64.3237 132.121 64.875 133.233 65.0325 133.94C65.3737 135.28 65.9512 135.608 66.24 134.572C66.6337 133.005 64.4287 129.366 63.0375 129.366C62.985 129.366 62.9325 129.568 62.9325 129.821Z" fill="#16A34A"/>
<path d="M58.47 142.836C58.47 143.594 59.7825 144.301 61.0688 144.225C62.0663 144.15 62.2763 144.074 62.2763 143.644C62.2763 143.24 62.04 143.114 61.2263 142.987C60.6488 142.886 59.7825 142.735 59.3363 142.633C58.6538 142.482 58.47 142.532 58.47 142.836Z" fill="#16A34A"/>
<path d="M55.7138 181.475C53.5875 184.709 53.5875 184.709 54.0863 184.709C55.005 184.709 57.84 180.312 57.63 179.2C57.5775 178.821 57.0525 179.428 55.7138 181.475Z" fill="#16A34A"/>
<path d="M64.56 196.384C64.3763 196.561 63.0638 196.713 61.2263 196.789C58.6013 196.89 58.1813 196.966 58.26 197.319C58.3913 198.002 62.4075 198.002 65.0063 197.319C65.19 197.269 65.5575 197.547 65.82 197.976C66.3713 198.937 67.1325 199.139 67.1325 198.305C67.1325 197.623 66.45 196.763 65.6363 196.359C64.9275 196.005 64.9538 196.005 64.56 196.384Z" fill="#16A34A"/>
</g>
<defs>
<clipPath id="clip0_18_2">
<rect width="162" height="210" fill="white"/>
</clipPath>
</defs>
</svg>
