<?xml version="1.0" standalone="no"?>
<!DOCTYPE svg PUBLIC "-//W3C//DTD SVG 20010904//EN"
 "http://www.w3.org/TR/2001/REC-SVG-20010904/DTD/svg10.dtd">
<svg version="1.0" xmlns="http://www.w3.org/2000/svg"
 width="512.000000pt" height="512.000000pt" viewBox="0 0 512.000000 512.000000"
 preserveAspectRatio="xMidYMid meet">

<g transform="translate(0.000000,512.000000) scale(0.100000,-0.100000)"
fill="#000000" stroke="none">
<path d="M2469 3927 c-100 -29 -184 -100 -231 -196 -33 -68 -37 -197 -8 -273
62 -165 256 -263 424 -214 75 22 122 52 174 111 62 70 85 141 80 245 -5 98
-26 152 -89 224 -80 91 -234 136 -350 103z"/>
<path d="M611 3774 c-19 -25 -21 -40 -21 -200 l0 -173 -52 -3 -53 -3 -3 -82
-3 -83 -239 0 -240 0 0 -45 0 -45 240 0 240 0 0 -85 0 -85 55 0 55 0 0 -178
c0 -206 5 -222 70 -222 27 0 43 6 53 20 13 19 13 19 30 0 21 -25 79 -27 102
-4 15 15 17 15 34 0 10 -9 34 -16 54 -16 65 0 67 9 67 307 l0 263 321 0 320 0
-3 43 -3 42 -317 3 -318 2 0 259 c0 246 -1 260 -21 285 -25 31 -70 35 -97 8
-18 -18 -19 -18 -42 0 -12 10 -32 18 -45 18 -13 0 -33 -8 -45 -18 -23 -18 -24
-18 -42 0 -27 27 -72 23 -97 -8z"/>
<path d="M4141 3774 c-20 -25 -21 -39 -21 -285 l0 -259 -317 -2 -318 -3 -3
-42 -3 -43 320 0 321 0 0 -263 c0 -298 2 -307 67 -307 20 0 44 7 54 16 17 15
19 15 34 0 23 -23 81 -21 102 4 17 19 17 19 30 0 10 -14 26 -20 53 -20 65 0
70 16 70 222 l0 178 55 0 55 0 0 85 0 85 240 0 240 0 0 45 0 45 -240 0 -239 0
-3 83 -3 82 -52 3 -53 3 0 173 c0 160 -2 175 -21 200 -25 31 -70 35 -97 8 -18
-18 -19 -18 -42 0 -12 10 -32 18 -45 18 -13 0 -33 -8 -45 -18 -23 -18 -24 -18
-42 0 -27 27 -72 23 -97 -8z"/>
<path d="M1713 3265 c-36 -16 -48 -43 -38 -93 10 -51 21 -70 58 -92 57 -35
135 -20 169 32 21 33 32 102 19 126 -21 40 -142 56 -208 27z"/>
<path d="M3233 3265 c-37 -16 -47 -40 -37 -92 9 -49 30 -80 65 -99 68 -35 153
0 177 71 21 63 13 97 -28 117 -42 21 -132 23 -177 3z"/>
<path d="M1967 3223 c-4 -3 -7 -24 -7 -45 l0 -38 133 0 132 0 -58 -24 c-67
-28 -154 -92 -193 -143 -25 -33 -28 -34 -35 -17 -4 10 -8 43 -8 73 -1 51 -2
53 -19 38 -24 -22 -86 -47 -115 -47 -13 0 -45 11 -70 24 l-47 23 0 -33 c0 -18
7 -160 16 -315 11 -202 19 -290 30 -311 21 -40 59 -61 108 -61 61 0 98 29 126
100 32 81 92 198 134 263 l35 55 1 -277 c0 -153 -3 -278 -7 -278 -5 0 -87 21
-183 45 -96 25 -186 45 -200 45 -36 -1 -101 -33 -132 -66 -34 -37 -48 -74 -48
-128 0 -40 158 -744 181 -804 22 -59 109 -121 169 -122 105 0 199 89 200 190
0 19 -23 131 -50 249 -28 118 -50 216 -50 217 0 1 78 -18 172 -42 202 -52 253
-55 314 -19 24 14 48 33 54 43 9 16 11 16 20 0 6 -10 30 -29 54 -43 61 -36
115 -33 315 19 94 25 171 43 171 42 0 -1 -22 -99 -50 -217 -27 -118 -50 -230
-50 -249 1 -101 95 -190 200 -190 60 1 147 63 169 122 23 60 181 764 181 804
0 54 -14 91 -48 128 -31 33 -96 65 -132 66 -14 0 -104 -20 -200 -45 -96 -24
-178 -45 -182 -45 -5 0 -8 125 -8 278 l1 277 35 -55 c42 -65 102 -182 134
-263 28 -71 65 -100 126 -100 49 0 87 21 108 61 11 21 19 109 30 311 9 155 16
297 16 315 l0 33 -47 -23 c-25 -13 -57 -24 -70 -24 -29 0 -91 25 -115 47 -17
15 -18 13 -19 -38 0 -30 -4 -63 -8 -73 -7 -17 -10 -16 -35 17 -39 51 -126 115
-193 143 l-58 24 133 0 133 0 -3 43 -3 42 -199 3 c-185 2 -203 1 -255 -20 -78
-30 -204 -30 -281 0 -50 20 -73 22 -251 22 -108 0 -199 -3 -202 -7z"/>
</g>
</svg>
